<svg width="54" height="60" viewBox="0 0 54 60" fill="none" xmlns="http://www.w3.org/2000/svg">
<path d="M9.5 59.1667H47.4167C48.9638 59.1667 50.4475 58.5521 51.5415 57.4582C52.6354 56.3642 53.25 54.8805 53.25 53.3334V6.66671C53.25 5.11961 52.6354 3.63588 51.5415 2.54192C50.4475 1.44796 48.9638 0.833374 47.4167 0.833374H6.58333C5.03624 0.833374 3.55251 1.44796 2.45854 2.54192C1.36458 3.63588 0.75 5.11961 0.75 6.66671V53.3334C0.75 54.8805 1.36458 56.3642 2.45854 57.4582C3.55251 58.5521 5.03624 59.1667 6.58333 59.1667H9.5ZM27 9.58046C31.8038 9.58046 35.75 13.5209 35.75 18.3305C35.75 23.1371 31.8038 27.0834 27 27.0834C22.1963 27.0834 18.25 23.1371 18.25 18.3305C18.25 13.5209 22.1963 9.58046 27 9.58046ZM9.5 45.3125C9.5 38.8405 17.3896 32.1875 27 32.1875C36.6104 32.1875 44.5 38.8405 44.5 45.3125V47.5H9.5V45.3125Z" fill="black"/>
</svg>
